<?xml version="1.0" encoding="UTF-8" standalone="no"?>
<svg width="140px" height="40px" viewBox="0 0 140 40" version="1.1" xmlns="http://www.w3.org/2000/svg" xmlns:xlink="http://www.w3.org/1999/xlink" xmlns:sketch="http://www.bohemiancoding.com/sketch/ns">
    <!-- Generator: Sketch 3.1.1 (8761) - http://www.bohemiancoding.com/sketch -->
    <title>red-sawtooth</title>
    <desc>Created with Sketch.</desc>
    <defs></defs>
    <g id="Page-1" stroke="none" stroke-width="1" fill="none" fill-rule="evenodd" sketch:type="MSPage">
        <g id="red-sawtooth" sketch:type="MSArtboardGroup" fill="#E61A30">
            <rect id="Rectangle-1" sketch:type="MSShapeGroup" transform="translate(20.000000, 20.000000) rotate(-45.000000) translate(-20.000000, -20.000000) " x="6" y="6" width="28" height="28"></rect>
            <rect id="Rectangle-1" sketch:type="MSShapeGroup" transform="translate(0.000000, 20.000000) rotate(-45.000000) translate(-0.000000, -20.000000) " x="-14" y="6" width="28" height="28"></rect>
            <rect id="Rectangle-1" sketch:type="MSShapeGroup" transform="translate(40.000000, 20.000000) rotate(-45.000000) translate(-40.000000, -20.000000) " x="26" y="6" width="28" height="28"></rect>
            <rect id="Rectangle-1" sketch:type="MSShapeGroup" transform="translate(60.000000, 20.000000) rotate(-45.000000) translate(-60.000000, -20.000000) " x="46" y="6" width="28" height="28"></rect>
            <rect id="Rectangle-1" sketch:type="MSShapeGroup" transform="translate(80.000000, 20.000000) rotate(-45.000000) translate(-80.000000, -20.000000) " x="66" y="6" width="28" height="28"></rect>
            <rect id="Rectangle-1" sketch:type="MSShapeGroup" transform="translate(100.000000, 20.000000) rotate(-45.000000) translate(-100.000000, -20.000000) " x="86" y="6" width="28" height="28"></rect>
            <rect id="Rectangle-1" sketch:type="MSShapeGroup" transform="translate(120.000000, 20.000000) rotate(-45.000000) translate(-120.000000, -20.000000) " x="106" y="6" width="28" height="28"></rect>
            <rect id="Rectangle-1" sketch:type="MSShapeGroup" transform="translate(140.000000, 20.000000) rotate(-45.000000) translate(-140.000000, -20.000000) " x="126" y="6" width="28" height="28"></rect>
            <rect id="Rectangle-9" sketch:type="MSShapeGroup" x="0" y="0" width="140" height="28"></rect>
        </g>
    </g>
</svg>