<svg xmlns="http://www.w3.org/2000/svg" width="64" height="64" class="dd-seal"><g><path d="M20.45 30.897h-2.721c-.331 0-.579-.08-.744-.241-.165-.161-.248-.402-.248-.724 0-.349.096-.59.288-.724.192-.134.556-.201 1.093-.201h.241v-12.08h-.215c-.536 0-.905-.071-1.106-.215-.201-.143-.302-.393-.302-.751 0-.331.083-.574.248-.731.165-.156.422-.235.771-.235h5.657c2.226 0 4 .717 5.323 2.152 1.323 1.435 1.984 3.372 1.984 5.812 0 1.189-.19 2.293-.57 3.311-.38 1.019-.932 1.913-1.656 2.682-.67.697-1.486 1.204-2.447 1.522-.961.317-2.197.476-3.707.476-.179 0-.481-.009-.905-.027-.423-.017-.752-.026-.984-.026zm0-1.89c.286.027.57.047.851.06.282.014.556.02.825.02 2.199 0 3.81-.491 4.833-1.475 1.023-.983 1.535-2.534 1.535-4.652 0-2.127-.514-3.676-1.542-4.646-1.028-.97-2.673-1.455-4.934-1.455-.42 0-.74.005-.959.013-.219.009-.422.027-.61.054v12.081zM36.643 49.876h-2.721c-.331 0-.579-.08-.744-.241-.165-.161-.248-.402-.248-.724 0-.349.096-.59.288-.724.192-.134.556-.201 1.093-.201h.241v-12.08h-.215c-.536 0-.905-.071-1.106-.215-.201-.143-.302-.393-.302-.751 0-.331.083-.574.248-.731.165-.156.422-.235.771-.235h5.657c2.226 0 4 .717 5.323 2.152 1.323 1.435 1.984 3.372 1.984 5.812 0 1.189-.19 2.293-.57 3.311-.38 1.019-.932 1.913-1.656 2.682-.67.697-1.486 1.204-2.447 1.522-.961.317-2.197.476-3.707.476-.179 0-.481-.009-.905-.027-.423-.017-.752-.026-.984-.026zm0-1.891c.286.027.57.047.851.06.282.014.556.02.825.02 2.199 0 3.81-.491 4.833-1.475 1.023-.983 1.535-2.534 1.535-4.652 0-2.127-.514-3.676-1.542-4.646-1.028-.97-2.673-1.455-4.934-1.455-.42 0-.74.005-.959.013-.219.009-.422.027-.61.054v12.081zM32.025 64c-17.645 0-32-14.355-32-32s14.355-32 32-32 32 14.355 32 32-14.355 32-32 32zm0-62.443c-16.786 0-30.443 13.657-30.443 30.443s13.657 30.443 30.443 30.443 30.443-13.657 30.443-30.443-13.656-30.443-30.443-30.443z"/><g stroke="#000" stroke-width="2" stroke-miterlimit="10" fill="none"><line x1="37.623" y1="22.01" x2="48.633" y2="11"/><line x1="40.926" y1="25.313" x2="51.935" y2="14.303"/><line x1="11.64" y1="47.992" x2="22.65" y2="36.983"/><line x1="14.943" y1="51.295" x2="25.953" y2="40.286"/></g></g></svg>