    <svg style="position: absolute; width: 0; height: 0;" width="0" height="0" version="1.1" xmlns="http://www.w3.org/2000/svg" xmlns:xlink="http://www.w3.org/1999/xlink">
<defs>

<symbol id="icon-demaree" width="64" height="64" class="dd-seal"><g><path fill="currentColor" d="M20.45 30.897h-2.721c-.331 0-.579-.08-.744-.241-.165-.161-.248-.402-.248-.724 0-.349.096-.59.288-.724.192-.134.556-.201 1.093-.201h.241v-12.08h-.215c-.536 0-.905-.071-1.106-.215-.201-.143-.302-.393-.302-.751 0-.331.083-.574.248-.731.165-.156.422-.235.771-.235h5.657c2.226 0 4 .717 5.323 2.152 1.323 1.435 1.984 3.372 1.984 5.812 0 1.189-.19 2.293-.57 3.311-.38 1.019-.932 1.913-1.656 2.682-.67.697-1.486 1.204-2.447 1.522-.961.317-2.197.476-3.707.476-.179 0-.481-.009-.905-.027-.423-.017-.752-.026-.984-.026zm0-1.89c.286.027.57.047.851.06.282.014.556.02.825.02 2.199 0 3.81-.491 4.833-1.475 1.023-.983 1.535-2.534 1.535-4.652 0-2.127-.514-3.676-1.542-4.646-1.028-.97-2.673-1.455-4.934-1.455-.42 0-.74.005-.959.013-.219.009-.422.027-.61.054v12.081zM36.643 49.876h-2.721c-.331 0-.579-.08-.744-.241-.165-.161-.248-.402-.248-.724 0-.349.096-.59.288-.724.192-.134.556-.201 1.093-.201h.241v-12.08h-.215c-.536 0-.905-.071-1.106-.215-.201-.143-.302-.393-.302-.751 0-.331.083-.574.248-.731.165-.156.422-.235.771-.235h5.657c2.226 0 4 .717 5.323 2.152 1.323 1.435 1.984 3.372 1.984 5.812 0 1.189-.19 2.293-.57 3.311-.38 1.019-.932 1.913-1.656 2.682-.67.697-1.486 1.204-2.447 1.522-.961.317-2.197.476-3.707.476-.179 0-.481-.009-.905-.027-.423-.017-.752-.026-.984-.026zm0-1.891c.286.027.57.047.851.06.282.014.556.02.825.02 2.199 0 3.81-.491 4.833-1.475 1.023-.983 1.535-2.534 1.535-4.652 0-2.127-.514-3.676-1.542-4.646-1.028-.97-2.673-1.455-4.934-1.455-.42 0-.74.005-.959.013-.219.009-.422.027-.61.054v12.081zM32.025 64c-17.645 0-32-14.355-32-32s14.355-32 32-32 32 14.355 32 32-14.355 32-32 32zm0-62.443c-16.786 0-30.443 13.657-30.443 30.443s13.657 30.443 30.443 30.443 30.443-13.657 30.443-30.443-13.656-30.443-30.443-30.443z"/>

<g class="lines" stroke="currentColor" stroke-width="2" stroke-miterlimit="10" fill="none"><line x1="37.623" y1="22.01" x2="48.633" y2="11"/><line x1="40.926" y1="25.313" x2="51.935" y2="14.303"/><line x1="11.64" y1="47.992" x2="22.65" y2="36.983"/><line x1="14.943" y1="51.295" x2="25.953" y2="40.286"/></g>

</g></symbol>


<symbol id="icon-email" viewBox="0 0 32 32">
<title>email</title>
<path class="path1" fill="currentColor" d="M30.75 6.844c0-1.023-0.821-1.844-1.844-1.844h-25.813c-1.023 0-1.844 0.821-1.844 1.844l14.75 11.063 14.75-11.063zM1.25 10.25v15.124c0 1.023 0.821 1.844 1.844 1.844h25.813c1.023 0 1.844-0.821 1.844-1.844v-15.124l-14.75 11.063-14.75-11.063z"></path>
</symbol>
<symbol id="icon-github" viewBox="0 0 32 32">
<title>github</title>
<path class="path1" fill="currentColor" d="M28.604 10.434c0.302-1.599 0.605-4.465-0.317-6.684-2.895 0.23-5.157 1.599-6.453 2.593-1.743-0.475-3.716-0.749-5.834-0.749s-4.091 0.274-5.877 0.749c-1.253-0.994-3.515-2.362-6.41-2.593-0.922 2.247-0.619 5.085-0.317 6.727-1.354 1.671-2.146 3.788-2.146 6.179 0 8.599 5.531 11.667 14.75 11.667s14.75-3.068 14.75-11.711c0-2.391-0.792-4.465-2.146-6.179v0zM16.029 26.408c-7.994 0-10.861-2.449-10.861-6.136 0-4.307 3.486-5.229 5.33-5.229s1.844 0.303 5.531 0.303c3.688 0 3.688-0.303 5.531-0.303s5.33 0.922 5.33 5.229c0 3.688-2.866 6.136-10.861 6.136v0zM11.319 17.809c-0.85 0-1.541 0.619-1.541 2.766s0.691 2.766 1.541 2.766c0.85 0 1.541-0.619 1.541-2.766s-0.691-2.766-1.541-2.766v0zM20.537 17.809c-0.85 0-1.541 0.619-1.541 2.766s0.691 2.766 1.541 2.766c0.85 0 1.541-0.619 1.541-2.766s-0.691-2.766-1.541-2.766v0z"></path>
</symbol>
<symbol id="icon-medium" viewBox="0 0 32 32">
<title>medium</title>
<path class="path1" fill="currentColor" d="M30.427 8.29c-0.006-0.004-0.010-0.010-0.017-0.014l-8.796-4.395c-0.059-0.030-0.122-0.050-0.185-0.066-0.079-0.020-0.16-0.033-0.242-0.033-0.336 0-0.671 0.169-0.853 0.463l-5.058 8.214 6.348 10.307 8.829-14.337c0.029-0.048 0.015-0.107-0.027-0.14z"></path>
<path class="path2" fill="currentColor" d="M12.491 10.589v9.35l8.317 4.155-8.317-13.505z"></path>
<path class="path3" fill="currentColor" d="M22.057 24.718l6.846 3.42c0.891 0.445 1.613 0.133 1.613-0.696v-16.46l-8.459 13.735z"></path>
<path class="path4" fill="currentColor" d="M11.047 8.304l-8.581-4.287c-0.155-0.077-0.303-0.114-0.436-0.114-0.376 0-0.639 0.291-0.639 0.778v18.512c0 0.496 0.363 1.082 0.807 1.304l7.558 3.776c0.194 0.097 0.378 0.143 0.545 0.143 0.47 0 0.799-0.363 0.799-0.973v-19.055c0-0.036-0.020-0.068-0.052-0.084z"></path>
</symbol>
<symbol id="icon-twitter" viewBox="0 0 32 32">
<title>twitter</title>
<path class="path1" fill="currentColor" d="M27.264 7.788c1.268-0.749 2.218-1.945 2.665-3.356-1.152 0.691-2.463 1.196-3.817 1.469-1.138-1.152-2.708-1.901-4.451-1.901-3.342 0-6.035 2.694-6.035 6.035 0 0.475 0.029 0.965 0.13 1.397-5.013-0.274-9.449-2.55-12.46-6.208-0.504 0.893-0.821 1.815-0.821 2.938 0 2.074 1.066 3.918 2.708 5.013-0.994-0.029-1.916-0.303-2.737-0.749v0.072c0 2.938 2.089 5.387 4.854 5.935-0.519 0.144-1.066 0.216-1.613 0.216-0.375 0-0.749-0.043-1.124-0.115 0.749 2.391 3.010 4.177 5.632 4.206-2.045 1.642-4.681 2.866-7.505 2.866-0.49 0-0.965-0.029-1.44-0.101 2.665 1.714 5.877 2.463 9.291 2.463 11.12 0 17.199-9.219 17.199-17.213v-0.792c1.167-0.85 2.189-1.901 3.011-3.14-1.095 0.49-2.247 0.821-3.486 0.965z"></path>
</symbol>
<symbol id="icon-google-plus3" viewBox="0 0 32 32">
<title>google-plus3</title>
<path class="path1" d="M16 0c-8.838 0-16 7.162-16 16s7.162 16 16 16 16-7.163 16-16-7.163-16-16-16zM12 24c-4.425 0-8-3.575-8-8s3.575-8 8-8c2.162 0 3.969 0.787 5.363 2.094l-2.175 2.088c-0.594-0.569-1.631-1.231-3.188-1.231-2.731 0-4.963 2.263-4.963 5.050s2.231 5.050 4.963 5.050c3.169 0 4.356-2.275 4.538-3.45h-4.537v-2.744h7.556c0.069 0.4 0.125 0.8 0.125 1.325 0 4.575-3.063 7.819-7.681 7.819zM26 16v2h-2v-2h-2v-2h2v-2h2v2h2v2h-2z"></path>
</symbol>
<symbol id="icon-instagram" viewBox="0 0 32 32">
<title>instagram</title>
<path class="path1" d="M16 2.881c4.275 0 4.781 0.019 6.462 0.094 1.563 0.069 2.406 0.331 2.969 0.55 0.744 0.288 1.281 0.638 1.837 1.194 0.563 0.563 0.906 1.094 1.2 1.838 0.219 0.563 0.481 1.412 0.55 2.969 0.075 1.688 0.094 2.194 0.094 6.463s-0.019 4.781-0.094 6.463c-0.069 1.563-0.331 2.406-0.55 2.969-0.288 0.744-0.637 1.281-1.194 1.837-0.563 0.563-1.094 0.906-1.837 1.2-0.563 0.219-1.413 0.481-2.969 0.55-1.688 0.075-2.194 0.094-6.463 0.094s-4.781-0.019-6.463-0.094c-1.563-0.069-2.406-0.331-2.969-0.55-0.744-0.288-1.281-0.637-1.838-1.194-0.563-0.563-0.906-1.094-1.2-1.837-0.219-0.563-0.481-1.413-0.55-2.969-0.075-1.688-0.094-2.194-0.094-6.463s0.019-4.781 0.094-6.463c0.069-1.563 0.331-2.406 0.55-2.969 0.288-0.744 0.638-1.281 1.194-1.838 0.563-0.563 1.094-0.906 1.838-1.2 0.563-0.219 1.412-0.481 2.969-0.55 1.681-0.075 2.188-0.094 6.463-0.094zM16 0c-4.344 0-4.887 0.019-6.594 0.094-1.7 0.075-2.869 0.35-3.881 0.744-1.056 0.412-1.95 0.956-2.837 1.85-0.894 0.888-1.438 1.781-1.85 2.831-0.394 1.019-0.669 2.181-0.744 3.881-0.075 1.713-0.094 2.256-0.094 6.6s0.019 4.887 0.094 6.594c0.075 1.7 0.35 2.869 0.744 3.881 0.413 1.056 0.956 1.95 1.85 2.837 0.887 0.887 1.781 1.438 2.831 1.844 1.019 0.394 2.181 0.669 3.881 0.744 1.706 0.075 2.25 0.094 6.594 0.094s4.888-0.019 6.594-0.094c1.7-0.075 2.869-0.35 3.881-0.744 1.050-0.406 1.944-0.956 2.831-1.844s1.438-1.781 1.844-2.831c0.394-1.019 0.669-2.181 0.744-3.881 0.075-1.706 0.094-2.25 0.094-6.594s-0.019-4.887-0.094-6.594c-0.075-1.7-0.35-2.869-0.744-3.881-0.394-1.063-0.938-1.956-1.831-2.844-0.887-0.887-1.781-1.438-2.831-1.844-1.019-0.394-2.181-0.669-3.881-0.744-1.712-0.081-2.256-0.1-6.6-0.1v0z"></path>
<path class="path2" d="M16 7.781c-4.537 0-8.219 3.681-8.219 8.219s3.681 8.219 8.219 8.219 8.219-3.681 8.219-8.219c0-4.537-3.681-8.219-8.219-8.219zM16 21.331c-2.944 0-5.331-2.387-5.331-5.331s2.387-5.331 5.331-5.331c2.944 0 5.331 2.387 5.331 5.331s-2.387 5.331-5.331 5.331z"></path>
<path class="path3" d="M26.462 7.456c0 1.060-0.859 1.919-1.919 1.919s-1.919-0.859-1.919-1.919c0-1.060 0.859-1.919 1.919-1.919s1.919 0.859 1.919 1.919z"></path>
</symbol>
<symbol id="icon-behance" viewBox="0 0 32 32">
<title>behance</title>
<path class="path1" d="M9.281 6.412c0.944 0 1.794 0.081 2.569 0.25 0.775 0.162 1.431 0.438 1.988 0.813 0.55 0.375 0.975 0.875 1.287 1.5 0.3 0.619 0.45 1.394 0.45 2.313 0 0.994-0.225 1.819-0.675 2.481-0.456 0.662-1.119 1.2-2.006 1.625 1.213 0.35 2.106 0.962 2.706 1.831 0.6 0.875 0.887 1.925 0.887 3.163 0 1-0.194 1.856-0.575 2.581-0.387 0.731-0.912 1.325-1.556 1.781-0.65 0.462-1.4 0.8-2.237 1.019-0.831 0.219-1.688 0.331-2.575 0.331h-9.544v-19.688h9.281zM8.719 14.363c0.769 0 1.406-0.181 1.906-0.55 0.5-0.363 0.738-0.963 0.738-1.787 0-0.456-0.081-0.838-0.244-1.131-0.169-0.294-0.387-0.525-0.669-0.688-0.275-0.169-0.588-0.281-0.956-0.344-0.356-0.069-0.731-0.1-1.113-0.1h-4.050v4.6h4.388zM8.956 22.744c0.425 0 0.831-0.038 1.213-0.125 0.387-0.087 0.731-0.219 1.019-0.419 0.287-0.194 0.531-0.45 0.706-0.788 0.175-0.331 0.256-0.756 0.256-1.275 0-1.012-0.287-1.738-0.856-2.175-0.569-0.431-1.325-0.644-2.262-0.644h-4.7v5.419h4.625z"></path>
<path class="path2" d="M22.663 22.675c0.587 0.575 1.431 0.863 2.531 0.863 0.788 0 1.475-0.2 2.044-0.6s0.913-0.825 1.044-1.262h3.45c-0.556 1.719-1.394 2.938-2.544 3.675-1.131 0.738-2.519 1.113-4.125 1.113-1.125 0-2.131-0.181-3.038-0.538-0.906-0.363-1.663-0.869-2.3-1.531-0.619-0.663-1.106-1.45-1.45-2.375-0.337-0.919-0.512-1.938-0.512-3.038 0-1.069 0.175-2.063 0.525-2.981 0.356-0.925 0.844-1.719 1.494-2.387s1.413-1.2 2.313-1.588c0.894-0.387 1.881-0.581 2.975-0.581 1.206 0 2.262 0.231 3.169 0.706 0.9 0.469 1.644 1.1 2.225 1.887s0.994 1.694 1.25 2.706c0.256 1.012 0.344 2.069 0.275 3.175h-10.294c0 1.119 0.375 2.188 0.969 2.756zM27.156 15.188c-0.462-0.512-1.256-0.794-2.212-0.794-0.625 0-1.144 0.106-1.556 0.319-0.406 0.213-0.738 0.475-0.994 0.787-0.25 0.313-0.425 0.65-0.525 1.006-0.1 0.344-0.163 0.663-0.181 0.938h6.375c-0.094-1-0.438-1.738-0.906-2.256z"></path>
<path class="path3" d="M20.887 8h7.981v1.944h-7.981v-1.944z"></path>
</symbol>
<symbol id="icon-linkedin" viewBox="0 0 32 32">
<title>linkedin</title>
<path class="path1" fill="currentColor" d="M12 12h5.535v2.837h0.079c0.77-1.381 2.655-2.837 5.464-2.837 5.842 0 6.922 3.637 6.922 8.367v9.633h-5.769v-8.54c0-2.037-0.042-4.657-3.001-4.657-3.005 0-3.463 2.218-3.463 4.509v8.688h-5.767v-18z"></path>
<path class="path2" fill="currentColor" d="M2 12h6v18h-6v-18z"></path>
<path class="path3" fill="currentColor" d="M8 7c0 1.657-1.343 3-3 3s-3-1.343-3-3c0-1.657 1.343-3 3-3s3 1.343 3 3z"></path>
</symbol>
</defs>
</svg>